<?xml version="1.0" encoding="utf-8"?>
<!-- Generator: Adobe Illustrator 25.4.1, SVG Export Plug-In . SVG Version: 6.00 Build 0)  -->
<svg version="1.1" id="Layer_1" xmlns="http://www.w3.org/2000/svg" xmlns:xlink="http://www.w3.org/1999/xlink" x="0px" y="0px"
	 viewBox="0 0 590.32 141.27" style="enable-background:new 0 0 590.32 141.27;" xml:space="preserve">
<style type="text/css">
	.st0{fill:#FFFFFF;}
</style>
<path class="st0" d="M554.66,82.74c-0.12,0.91-0.49,1.45-1.1,1.6c-0.61,0.15-0.95,0.23-1.01,0.23h-9.98c-0.25,0-0.4-0.06-0.46-0.18
	c-0.12-0.12-0.15-0.28-0.09-0.46l2.2-17.63c0.06-0.36,0.2-0.59,0.41-0.69c0.21-0.09,0.38-0.14,0.5-0.14h9.89
	c0.12,0,0.28,0.03,0.46,0.09c0.36,0.12,0.64,0.28,0.82,0.46c0.3,0.31,0.4,0.73,0.27,1.28L554.66,82.74z M565.55,53.26
	c-1.1-0.58-2.12-0.99-3.06-1.23c-0.95-0.24-1.76-0.4-2.43-0.46c-0.67-0.06-1.04-0.09-1.1-0.09h-25.54c-0.25,0-0.54,0.11-0.87,0.32
	c-0.33,0.21-0.56,0.59-0.69,1.14l-4.21,33.65c-0.12,1.16-0.38,2.04-0.78,2.65s-0.79,1.07-1.19,1.37c-0.4,0.31-0.93,0.52-1.6,0.64
	v0.73c0.12,0,0.3,0.03,0.55,0.09c0.37,0.12,0.73,0.37,1.1,0.73c0.67,0.85,0.88,2.1,0.64,3.75l-2.47,20.39
	c-0.06,0.06-0.09,0.2-0.09,0.41c0,0.21,0.06,0.44,0.18,0.69c0.12,0.14,0.26,0.26,0.41,0.36c0.15,0.11,0.38,0.16,0.69,0.16h10.98
	c0.67,0,1.13-0.17,1.37-0.5c0.24-0.34,0.37-0.66,0.37-0.96l2.29-17.68c0.06-0.37,0.2-0.58,0.41-0.64c0.21-0.06,0.35-0.09,0.41-0.09
	h10.25c0.43,0,0.76,0.12,1.01,0.36c0.24,0.37,0.33,0.79,0.27,1.28l-2.11,16.71c-0.06,0.12-0.06,0.24,0,0.36
	c0,0.18,0.12,0.4,0.37,0.64c0.3,0.35,0.7,0.52,1.19,0.52h10.8h0.09c0.24,0,0.55-0.11,0.92-0.32c0.36-0.21,0.58-0.59,0.64-1.14
	l1.28-10.26c0.18-1.28,0.35-2.55,0.5-3.8c0.15-1.25,0.29-2.37,0.41-3.34c0.12-0.98,0.28-2.08,0.46-3.3
	c0.18-1.77-0.15-3.15-1.01-4.12c-0.19-0.18-0.46-0.4-0.83-0.64c0.55-0.24,1.14-0.73,1.79-1.46c0.64-0.73,1.05-1.89,1.24-3.48
	l2.65-21.58c0.55-3.9-0.22-7.07-2.29-9.51C567.66,54.62,566.65,53.84,565.55,53.26 M518.32,51.4c-0.25-0.03-0.4-0.05-0.46-0.05
	h-37.62c-0.25,0-0.55,0.11-0.91,0.32c-0.37,0.22-0.58,0.6-0.64,1.14l-4.21,33.72c-0.18,1.16-0.46,2.05-0.82,2.66
	c-0.37,0.61-0.75,1.07-1.14,1.37c-0.4,0.31-0.93,0.52-1.6,0.64v0.73c0.18,0,0.36,0.03,0.55,0.09c0.24,0.12,0.58,0.37,1.01,0.73
	c0.67,0.74,0.91,1.99,0.73,3.76l-2.56,20.52c-0.06,0.43,0.03,0.77,0.28,1.01c0.18,0.21,0.4,0.33,0.64,0.35
	c0.24,0.03,0.4,0.04,0.46,0.04h37.62c0.24,0,0.55-0.09,0.91-0.27c0.36-0.18,0.58-0.55,0.64-1.1l1.37-11.07
	c0.06-0.3,0.06-0.53,0-0.69c-0.06-0.15-0.15-0.29-0.27-0.41c-0.18-0.18-0.38-0.3-0.6-0.37c-0.21-0.06-0.35-0.09-0.41-0.09h-24.35
	c-0.25,0-0.43-0.06-0.55-0.18c-0.06-0.06-0.09-0.22-0.09-0.46l0.55-4.51c0.06-0.37,0.21-0.58,0.46-0.65
	c0.25-0.06,0.4-0.09,0.46-0.09h11.08c0.24,0,0.55-0.11,0.92-0.32c0.36-0.21,0.58-0.59,0.64-1.14l1.37-11.07
	c0.06-0.42-0.03-0.76-0.28-1c-0.18-0.24-0.38-0.38-0.59-0.41c-0.22-0.03-0.35-0.05-0.41-0.05h-11.08c-0.25,0-0.4-0.09-0.46-0.27
	c-0.12-0.06-0.18-0.21-0.18-0.46l2.29-17.55c0.06-0.36,0.2-0.59,0.41-0.68c0.21-0.09,0.35-0.14,0.41-0.14h24.35
	c0.3,0,0.63-0.09,0.96-0.28s0.57-0.55,0.69-1.1l1.37-11.12c0-0.55-0.09-0.92-0.28-1.1C518.78,51.59,518.56,51.43,518.32,51.4
	 M465.5,52.97c0-0.55-0.09-0.91-0.28-1.1c-0.18-0.21-0.4-0.33-0.64-0.35c-0.24-0.03-0.4-0.04-0.45-0.04h-11.08
	c-0.24,0-0.55,0.11-0.91,0.32c-0.37,0.21-0.58,0.59-0.64,1.14l-3.93,30.93c-0.06,0.37-0.2,0.6-0.41,0.69
	c-0.22,0.09-0.35,0.14-0.41,0.14h-11.08c-0.24,0-0.4-0.09-0.46-0.28c-0.12-0.12-0.18-0.27-0.18-0.46l3.94-30.99
	c0-0.55-0.09-0.91-0.28-1.1c-0.18-0.21-0.4-0.33-0.64-0.35c-0.25-0.03-0.4-0.04-0.46-0.04H426.5c-0.24,0-0.55,0.11-0.91,0.32
	s-0.58,0.59-0.64,1.14l-4.21,33.65c-0.18,1.16-0.46,2.04-0.82,2.65c-0.37,0.61-0.75,1.07-1.14,1.37c-0.4,0.31-0.93,0.52-1.6,0.64
	v0.73c0.18,0,0.37,0.03,0.55,0.09c0.24,0.12,0.58,0.37,1.01,0.73c0.67,0.79,0.91,2.04,0.73,3.75l-2.56,20.48
	c-0.06,0.43,0.03,0.76,0.27,1.01c0.18,0.28,0.4,0.44,0.64,0.47c0.24,0.03,0.4,0.05,0.46,0.05h11.08c0.24,0,0.55-0.09,0.91-0.27
	c0.37-0.19,0.58-0.55,0.64-1.1l2.2-17.77c0.06-0.37,0.21-0.58,0.46-0.64c0.24-0.06,0.4-0.09,0.46-0.09h11.08
	c0.24,0,0.4,0.06,0.46,0.18c0.12,0.12,0.15,0.28,0.09,0.46l-2.19,17.71c-0.06,0.42,0.03,0.76,0.27,1c0.18,0.28,0.4,0.44,0.64,0.47
	c0.24,0.03,0.4,0.05,0.46,0.05h11.08c0.24,0,0.55-0.09,0.91-0.27c0.37-0.19,0.58-0.55,0.64-1.1l2.56-20.52
	c0.12-1.16,0.38-2.04,0.78-2.66c0.4-0.61,0.79-1.07,1.19-1.37c0.4-0.31,0.93-0.52,1.6-0.64v-0.73c-0.18,0-0.37-0.03-0.55-0.09
	c-0.12-0.06-0.29-0.14-0.5-0.23c-0.21-0.09-0.38-0.26-0.5-0.5c-0.79-0.73-1.04-1.98-0.73-3.76L465.5,52.97z M412.36,51.71
	c-0.09-0.02-0.2-0.05-0.32-0.1c-0.12-0.09-0.24-0.13-0.37-0.13h-37.62c-0.31,0-0.63,0.09-0.96,0.28c-0.34,0.19-0.56,0.58-0.69,1.19
	l-1.37,10.98c-0.06,0.49,0.03,0.85,0.28,1.1c0.18,0.24,0.4,0.38,0.64,0.41c0.24,0.03,0.4,0.04,0.46,0.04h10.98
	c0.24,0,0.43,0.06,0.55,0.18c0.06,0.06,0.09,0.24,0.09,0.55l-2.56,20.39c-0.12,1.16-0.38,2.04-0.78,2.65
	c-0.4,0.61-0.79,1.07-1.19,1.37c-0.4,0.3-0.93,0.52-1.6,0.64v0.73c0.12,0,0.3,0.03,0.55,0.09c0.36,0.12,0.73,0.36,1.1,0.73
	c0.67,0.85,0.92,2.1,0.73,3.75l-2.56,20.39c-0.06,0.49,0.03,0.85,0.28,1.1c0.18,0.28,0.38,0.44,0.59,0.47
	c0.22,0.03,0.35,0.05,0.41,0.05h11.08c0.3,0,0.63-0.09,0.96-0.27c0.34-0.19,0.56-0.58,0.69-1.19l2.56-20.41
	c0.12-1.16,0.36-2.04,0.73-2.65c0.36-0.61,0.76-1.07,1.19-1.37c0.43-0.3,0.79-0.49,1.1-0.55c0.31-0.06,0.49-0.09,0.55-0.09v-0.73
	c-0.06,0-0.27-0.03-0.64-0.09c-0.37-0.06-0.7-0.3-1.01-0.73c-0.67-0.67-0.91-1.92-0.73-3.75l2.56-20.41c0.06-0.37,0.2-0.6,0.41-0.69
	c0.21-0.09,0.38-0.14,0.5-0.14h11.08c0.24,0,0.55-0.09,0.91-0.28c0.37-0.18,0.58-0.58,0.64-1.2l1.37-11.02
	c0.06-0.49-0.03-0.86-0.27-1.1C412.56,51.78,412.45,51.73,412.36,51.71 M365.53,51.4c-0.25-0.03-0.4-0.05-0.46-0.05h-37.62
	c-0.25,0-0.55,0.11-0.92,0.32c-0.37,0.22-0.58,0.6-0.64,1.14l-4.21,33.72c-0.18,1.16-0.46,2.05-0.82,2.66
	c-0.37,0.61-0.75,1.07-1.14,1.37c-0.4,0.31-0.93,0.52-1.6,0.64v0.73c0.19,0,0.37,0.03,0.55,0.09c0.24,0.12,0.58,0.37,1.01,0.73
	c0.67,0.74,0.92,1.99,0.73,3.76l-2.56,20.52c-0.06,0.43,0.03,0.77,0.27,1.01c0.19,0.21,0.4,0.33,0.64,0.35
	c0.24,0.03,0.4,0.04,0.46,0.04h37.62c0.24,0,0.55-0.09,0.91-0.27c0.36-0.18,0.58-0.55,0.64-1.1l1.37-11.07
	c0.06-0.3,0.06-0.53,0-0.69c-0.06-0.15-0.15-0.29-0.27-0.41c-0.19-0.18-0.38-0.3-0.6-0.37c-0.22-0.06-0.35-0.09-0.41-0.09h-24.35
	c-0.24,0-0.42-0.06-0.55-0.18c-0.06-0.06-0.09-0.22-0.09-0.46l0.55-4.51c0.06-0.37,0.21-0.58,0.46-0.65
	c0.24-0.06,0.4-0.09,0.46-0.09h11.08c0.24,0,0.55-0.11,0.91-0.32c0.37-0.21,0.58-0.59,0.64-1.14l1.37-11.07
	c0.06-0.42-0.03-0.76-0.28-1c-0.19-0.24-0.38-0.38-0.6-0.41c-0.22-0.03-0.35-0.05-0.41-0.05h-11.08c-0.25,0-0.4-0.09-0.46-0.27
	c-0.12-0.06-0.18-0.21-0.18-0.46l2.29-17.55c0.06-0.36,0.2-0.59,0.41-0.68c0.21-0.09,0.35-0.14,0.41-0.14h24.35
	c0.3,0,0.63-0.09,0.96-0.28c0.34-0.18,0.56-0.55,0.69-1.1l1.37-11.12c0-0.55-0.09-0.92-0.28-1.1
	C365.99,51.59,365.78,51.43,365.53,51.4 M307.68,52.64c-0.85-0.55-1.71-0.98-2.56-1.28c-0.85-0.31-1.65-0.54-2.38-0.69
	c-0.73-0.15-1.31-0.23-1.74-0.23c-0.12,0-0.23-0.02-0.32-0.06c-0.09-0.04-0.2-0.07-0.32-0.07h-0.27h-13.28h-0.28
	c-0.12,0-0.23,0.02-0.32,0.07c-0.09,0.04-0.2,0.06-0.32,0.06h-0.09c-0.67,0.06-1.69,0.25-3.07,0.55c-1.37,0.31-2.79,0.9-4.26,1.79
	c-1.47,0.89-2.84,2.11-4.12,3.66c-1.28,1.56-2.17,3.62-2.65,6.18c0,0.06-0.05,0.43-0.14,1.1c-0.09,0.67-0.22,1.54-0.36,2.61
	c-0.15,1.07-0.31,2.27-0.46,3.62c-0.15,1.35-0.32,2.72-0.5,4.12c-0.43,3.3-0.89,6.99-1.37,11.08l-0.28,2.11
	c-0.18,0.98-0.46,1.74-0.82,2.29c-0.37,0.55-0.75,0.94-1.14,1.19c-0.4,0.24-0.9,0.43-1.51,0.55v0.73c0.12,0,0.3,0.03,0.55,0.09
	c0.36,0.12,0.73,0.36,1.1,0.73c0.67,0.92,0.89,2.17,0.64,3.75l-0.91,8.33c-0.49,3.91,0.21,6.99,2.11,9.25
	c0.67,0.85,1.43,1.56,2.29,2.11c0.85,0.55,1.69,0.98,2.52,1.28c0.82,0.31,1.6,0.53,2.33,0.69c0.73,0.15,1.34,0.26,1.83,0.32h0.92
	h25.36c0.3,0,0.63-0.09,0.96-0.27c0.34-0.19,0.57-0.55,0.69-1.1c0.55-4.82,1.1-9.3,1.65-13.45c0.24-1.77,0.47-3.55,0.69-5.35
	c0.21-1.8,0.41-3.49,0.59-5.08c0.18-1.59,0.35-3.01,0.5-4.26c0.15-1.25,0.29-2.21,0.41-2.88c0.06-0.18,0.06-0.3,0-0.37
	c0-0.49-0.15-0.81-0.46-0.96c-0.31-0.15-0.58-0.23-0.83-0.23l-17.76,0.09c-0.61-0.12-1.02-0.01-1.24,0.32
	c-0.22,0.34-0.35,0.65-0.41,0.96l-1.37,11.08c0,0.31,0.09,0.63,0.27,0.96c0.18,0.34,0.55,0.56,1.1,0.68h5.12l-0.46,4.03
	c-0.18,0.85-0.58,1.41-1.19,1.65c-0.24,0.18-0.55,0.24-0.91,0.18h-8.88c-0.12,0-0.28-0.03-0.46-0.09c-0.43-0.12-0.7-0.28-0.82-0.46
	c-0.31-0.31-0.4-0.73-0.27-1.28l4.48-36.52c0.12-0.92,0.49-1.47,1.1-1.65c0.61-0.18,0.94-0.28,1-0.28h8.88
	c0.12,0,0.27,0.03,0.46,0.09c0.37,0.12,0.64,0.28,0.83,0.46c0.24,0.37,0.33,0.81,0.28,1.3l-0.46,3.35v0.46
	c0.12,0.44,0.32,0.72,0.59,0.84c0.27,0.12,0.54,0.22,0.78,0.28h11.08c0.24-0.06,0.55-0.18,0.91-0.37c0.36-0.18,0.58-0.55,0.64-1.1
	l0.73-5.51c0.43-3.92-0.28-7.04-2.11-9.37C309.29,53.89,308.53,53.19,307.68,52.64 M231.42,67.26c0.12-0.91,0.49-1.46,1.1-1.65
	c0.61-0.18,0.95-0.28,1.01-0.28h8.79c0.12,0,0.28,0.03,0.46,0.09c0.36,0.12,0.64,0.27,0.83,0.46c0.24,0.25,0.36,0.67,0.36,1.28
	l-4.49,35.35c-0.12,0.98-0.49,1.54-1.1,1.69c-0.61,0.15-0.95,0.23-1.01,0.23h-8.88c-0.12,0-0.28-0.03-0.46-0.09
	c-0.43-0.12-0.7-0.27-0.83-0.46c-0.24-0.37-0.33-0.79-0.27-1.28L231.42,67.26z M258.25,64.99c0.42-3.97-0.37-7.17-2.38-9.61
	c-0.91-0.98-1.92-1.74-3.02-2.29c-1.1-0.55-2.12-0.96-3.07-1.23c-0.95-0.28-1.76-0.43-2.43-0.46c-0.67-0.03-1.04-0.05-1.1-0.05
	h-13.27c-0.06,0-0.81,0.08-2.25,0.23c-1.43,0.15-3.05,0.66-4.85,1.51c-1.8,0.85-3.51,2.2-5.13,4.03c-1.62,1.83-2.64,4.43-3.07,7.78
	l-2.75,21.6c-0.12,1.16-0.38,2.04-0.78,2.65c-0.4,0.61-0.79,1.07-1.19,1.37c-0.4,0.31-0.93,0.52-1.6,0.64v0.73
	c0.12,0,0.3,0.03,0.55,0.09c0.37,0.12,0.73,0.37,1.1,0.73c0.67,0.85,0.88,2.11,0.64,3.75l-1.01,8.24c-0.49,4.15,0.3,7.38,2.38,9.7
	c0.92,1.04,1.91,1.82,2.98,2.33c1.07,0.52,2.09,0.92,3.07,1.19c0.98,0.28,1.8,0.43,2.47,0.46c0.67,0.03,1.04,0.04,1.1,0.04h13.27
	c0.06,0,0.81-0.07,2.24-0.23c1.43-0.15,3.05-0.66,4.85-1.51c1.8-0.85,3.51-2.2,5.13-4.03c1.61-1.83,2.64-4.43,3.07-7.78l1.1-8.33
	c0.12-1.16,0.36-2.04,0.73-2.65c0.37-0.61,0.76-1.07,1.19-1.37c0.43-0.3,0.79-0.49,1.1-0.55c0.3-0.06,0.48-0.09,0.55-0.09v-0.73
	c-0.06,0-0.26-0.03-0.6-0.09c-0.34-0.06-0.69-0.31-1.05-0.73c-0.67-0.67-0.91-1.92-0.73-3.75L258.25,64.99z M218.11,23.03
	c-0.13-0.04-0.28-0.11-0.46-0.2c-0.17-0.09-0.35-0.13-0.52-0.13h-53.75c-0.44,0-0.89,0.13-1.37,0.39c-0.48,0.26-0.81,0.83-0.98,1.7
	l-1.96,15.69c-0.09,0.7,0.04,1.22,0.39,1.57c0.26,0.35,0.57,0.54,0.92,0.59c0.35,0.05,0.56,0.07,0.65,0.07h15.69
	c0.35,0,0.61,0.09,0.78,0.26c0.09,0.09,0.13,0.35,0.13,0.79l-3.66,29.16c-0.17,1.65-0.54,2.92-1.11,3.79
	c-0.57,0.87-1.13,1.53-1.7,1.96c-0.57,0.44-1.33,0.74-2.29,0.91v1.05c0.17,0,0.43,0.05,0.78,0.13c0.52,0.17,1.05,0.52,1.57,1.04
	c0.96,1.22,1.31,3.01,1.05,5.36l-3.66,29.16c-0.09,0.7,0.04,1.22,0.39,1.57c0.26,0.35,0.54,0.54,0.85,0.59
	c0.3,0.05,0.5,0.07,0.59,0.07h15.82c0.44,0,0.89-0.13,1.37-0.39c0.48-0.26,0.81-0.83,0.98-1.7l3.66-29.16
	c0.17-1.66,0.52-2.92,1.05-3.79c0.52-0.87,1.09-1.52,1.7-1.96c0.61-0.44,1.13-0.7,1.57-0.78c0.43-0.09,0.7-0.13,0.78-0.13V79.6
	c-0.09,0-0.39-0.04-0.91-0.13c-0.52-0.09-1-0.44-1.44-1.05c-0.96-0.96-1.31-2.75-1.05-5.36l3.66-29.16
	c0.08-0.52,0.28-0.85,0.59-0.98c0.3-0.13,0.54-0.2,0.72-0.2h15.82c0.35,0,0.79-0.13,1.31-0.39c0.52-0.26,0.83-0.83,0.91-1.7
	l1.96-15.69c0.09-0.7-0.04-1.22-0.39-1.57C218.39,23.19,218.24,23.08,218.11,23.03 M154.62,51.71c-0.09-0.02-0.2-0.05-0.32-0.1
	c-0.12-0.09-0.24-0.13-0.37-0.13h-37.62c-0.31,0-0.63,0.09-0.96,0.28c-0.34,0.19-0.56,0.58-0.69,1.19l-1.37,10.98
	c-0.06,0.49,0.03,0.85,0.27,1.1c0.19,0.24,0.4,0.38,0.64,0.41c0.24,0.03,0.4,0.04,0.46,0.04h10.98c0.24,0,0.43,0.06,0.55,0.18
	c0.06,0.06,0.09,0.24,0.09,0.55l-2.56,20.39c-0.12,1.16-0.38,2.04-0.78,2.65c-0.4,0.61-0.79,1.07-1.19,1.37
	c-0.4,0.3-0.93,0.52-1.6,0.64v0.73c0.12,0,0.3,0.03,0.55,0.09c0.36,0.12,0.73,0.36,1.1,0.73c0.67,0.85,0.91,2.1,0.73,3.75
	l-2.56,20.39c-0.06,0.49,0.03,0.85,0.28,1.1c0.18,0.28,0.38,0.44,0.59,0.47c0.21,0.03,0.35,0.05,0.41,0.05h11.08
	c0.3,0,0.63-0.09,0.96-0.27c0.34-0.19,0.57-0.58,0.69-1.19l2.56-20.41c0.12-1.16,0.37-2.04,0.73-2.65c0.36-0.61,0.76-1.07,1.19-1.37
	c0.43-0.3,0.79-0.49,1.1-0.55c0.3-0.06,0.49-0.09,0.55-0.09v-0.73c-0.06,0-0.27-0.03-0.64-0.09s-0.7-0.3-1.01-0.73
	c-0.67-0.67-0.91-1.92-0.73-3.75l2.56-20.41c0.06-0.37,0.2-0.6,0.41-0.69c0.21-0.09,0.38-0.14,0.5-0.14h11.08
	c0.24,0,0.55-0.09,0.91-0.28s0.58-0.58,0.64-1.2l1.37-11.02c0.06-0.49-0.03-0.86-0.27-1.1C154.82,51.78,154.71,51.73,154.62,51.71
	 M106.52,52.97c0-0.55-0.09-0.91-0.28-1.1c-0.18-0.21-0.4-0.33-0.64-0.35c-0.25-0.03-0.4-0.04-0.46-0.04H94.07
	c-0.25,0-0.55,0.11-0.92,0.32c-0.36,0.21-0.58,0.59-0.64,1.14l-4.3,33.92c-0.18,1.1-0.46,1.94-0.82,2.52
	c-0.37,0.58-0.75,1.01-1.14,1.28c-0.4,0.28-0.9,0.47-1.51,0.59v0.73c0.18,0,0.37,0.03,0.55,0.09c0.24,0.12,0.58,0.37,1,0.73
	c0.61,0.73,0.89,1.86,0.83,3.38l-2.66,20.76c-0.06,0.49,0.03,0.85,0.28,1.1c0.18,0.28,0.4,0.44,0.64,0.47
	c0.25,0.03,0.4,0.05,0.46,0.05H96.9c0.24,0,0.55-0.09,0.91-0.27c0.37-0.19,0.58-0.58,0.64-1.19l2.56-20.43
	c0.12-1.16,0.38-2.04,0.78-2.66c0.4-0.61,0.79-1.07,1.19-1.37s0.93-0.52,1.6-0.64v-0.73c-0.18,0-0.36-0.03-0.55-0.09
	c-0.12-0.06-0.29-0.14-0.5-0.23c-0.21-0.09-0.38-0.26-0.5-0.5c-0.79-0.73-1.04-1.98-0.73-3.76L106.52,52.97z M87.45,22.77
	c-0.35-0.04-0.57-0.07-0.65-0.07H33.05c-0.35,0-0.78,0.15-1.31,0.46c-0.52,0.31-0.83,0.85-0.91,1.63l-6.01,48.13
	c-0.26,1.65-0.65,2.92-1.18,3.79c-0.52,0.87-1.07,1.53-1.63,1.96c-0.57,0.44-1.33,0.74-2.29,0.91v1.05c0.26,0,0.52,0.05,0.79,0.13
	c0.35,0.17,0.83,0.52,1.44,1.04c0.96,1.05,1.31,2.84,1.05,5.36l-3.66,29.16c-0.09,0.7,0.04,1.22,0.39,1.57
	c0.26,0.35,0.57,0.54,0.91,0.59c0.35,0.05,0.57,0.07,0.65,0.07H37.1c0.35,0,0.79-0.13,1.31-0.39c0.52-0.26,0.83-0.83,0.91-1.7
	l3.14-25.24c0.09-0.52,0.3-0.83,0.65-0.92c0.35-0.09,0.56-0.13,0.65-0.13H59.6c0.35-0.09,0.79-0.26,1.31-0.52
	c0.52-0.26,0.83-0.78,0.91-1.57l1.96-15.82c0.09-0.61-0.04-1.09-0.39-1.44c-0.26-0.35-0.55-0.56-0.85-0.65
	c-0.31-0.09-0.5-0.13-0.59-0.13H46.12c-0.35,0-0.57-0.09-0.65-0.26c-0.17-0.09-0.26-0.3-0.26-0.65l3.27-25.24
	c0.09-0.52,0.28-0.85,0.59-0.98c0.31-0.13,0.5-0.2,0.59-0.2h34.79c0.44,0,0.89-0.13,1.37-0.39c0.48-0.26,0.81-0.83,0.98-1.7
	l1.96-15.69c0-0.78-0.13-1.31-0.39-1.57C88.11,23.01,87.8,22.82,87.45,22.77"/>
</svg>
